<?xml version="1.0" standalone="no"?>
<!DOCTYPE svg PUBLIC "-//W3C//DTD SVG 20010904//EN" "http://www.w3.org/TR/2001/REC-SVG-20010904/DTD/svg10.dtd">
<!-- Created using Krita: https://krita.org -->
<svg xmlns="http://www.w3.org/2000/svg" 
    xmlns:xlink="http://www.w3.org/1999/xlink"
    width="114.469pt"
    height="140.625pt"
    viewBox="0 0 114.469 140.625">
<defs/>
<path id="shape0" transform="matrix(0.140625 0 0 0.140625 -0.00703124999999716 0.00703125000002558)" fill="#ffffff" stroke-opacity="0" stroke="#000000" stroke-width="0" stroke-linecap="square" stroke-linejoin="bevel" d="M788.1 340.9C782.3 345.4 679.9 403.1 679.9 531.4C679.9 679.8 810.2 732.3 814.1 733.6C813.5 736.8 793.4 805.5 745.4 875.5C702.6 937.1 657.9 998.6 589.9 998.6C521.9 998.6 504.4 959.1 425.9 959.1C349.4 959.1 322.2 999.9 260 999.9C197.8 999.9 154.4 942.9 104.5 872.9C46.7 790.7 0 663 0 541.8C0 347.4 126.4 244.3 250.8 244.3C316.9 244.3 372 287.7 413.5 287.7C453 287.7 514.6 241.7 589.8 241.7C618.3 241.7 720.7 244.3 788.1 340.9ZM554.1 159.4C585.2 122.5 607.2 71.3 607.2 20.1C607.2 13 606.6 5.8 605.3 -3.55271e-14C554.7 1.9 494.5 33.7 458.2 75.8C429.7 108.2 403.1 159.4 403.1 211.3C403.1 219.1 404.4 226.9 405 229.4C408.2 230 413.4 230.7 418.6 230.7C464 230.7 521.1 200.3 554.1 159.4Z" />
</svg>
